<svg width="49" height="38" viewBox="0 0 49 38" fill="none" xmlns="http://www.w3.org/2000/svg">
<path fill-rule="evenodd" clip-rule="evenodd" d="M46.4165 37.9019C46.4165 37.9019 49.4998 37.9019 49.4998 34.7908C49.4998 31.6797 46.4165 22.3463 34.0832 22.3463C21.7498 22.3463 18.6665 31.6797 18.6665 34.7908C18.6665 37.9019 21.7498 37.9019 21.7498 37.9019H46.4165ZM21.8177 34.7908H46.3487C46.3631 34.7891 46.3775 34.787 46.3918 34.7845L46.4165 34.7783C46.4103 33.957 45.9016 31.5739 44.0732 29.4272C42.3712 27.4143 39.3803 25.4574 34.0832 25.4574C28.7891 25.4574 25.7983 27.4174 24.0932 29.4272C22.2648 31.5739 21.7529 33.9601 21.7498 34.7783C21.7724 34.7827 21.795 34.7869 21.8177 34.7908ZM34.0832 16.1241C35.7187 16.1241 37.2872 15.4685 38.4437 14.3017C39.6001 13.1348 40.2498 11.5521 40.2498 9.90188C40.2498 8.25164 39.6001 6.66899 38.4437 5.5021C37.2872 4.33521 35.7187 3.67965 34.0832 3.67965C32.4477 3.67965 30.8792 4.33521 29.7227 5.5021C28.5662 6.66899 27.9165 8.25164 27.9165 9.90188C27.9165 11.5521 28.5662 13.1348 29.7227 14.3017C30.8792 15.4685 32.4477 16.1241 34.0832 16.1241ZM43.3332 9.90188C43.3332 11.1275 43.0939 12.3412 42.6291 13.4736C42.1642 14.606 41.4828 15.6349 40.6239 16.5015C39.765 17.3682 38.7453 18.0557 37.623 18.5248C36.5007 18.9938 35.2979 19.2352 34.0832 19.2352C32.8684 19.2352 31.6656 18.9938 30.5433 18.5248C29.4211 18.0557 28.4014 17.3682 27.5424 16.5015C26.6835 15.6349 26.0021 14.606 25.5373 13.4736C25.0724 12.3412 24.8332 11.1275 24.8332 9.90188C24.8332 7.42652 25.8077 5.05255 27.5424 3.30221C29.2771 1.55187 31.6299 0.568542 34.0832 0.568542C36.5364 0.568542 38.8892 1.55187 40.6239 3.30221C42.3586 5.05255 43.3332 7.42652 43.3332 9.90188ZM21.5525 23.2174C20.3191 22.8255 19.0477 22.5679 17.76 22.449C17.0364 22.3796 16.31 22.3453 15.5832 22.3463C3.24984 22.3463 0.166504 31.6797 0.166504 34.7908C0.166504 36.8659 1.19325 37.9019 3.24984 37.9019H16.2492C15.7921 36.9306 15.5641 35.8658 15.5832 34.7908C15.5832 31.6485 16.7456 28.4379 18.944 25.7561C19.6933 24.8414 20.5658 23.9859 21.5525 23.2174ZM15.3365 25.4574C10.1935 25.5197 7.27359 27.4485 5.59317 29.4272C3.75242 31.5863 3.24984 33.9788 3.24984 34.7908H12.4998C12.4998 31.5397 13.4958 28.301 15.3365 25.4574ZM4.7915 11.4574C4.7915 8.98208 5.76605 6.60811 7.50077 4.85777C9.23548 3.10743 11.5883 2.1241 14.0415 2.1241C16.4948 2.1241 18.8475 3.10743 20.5822 4.85777C22.317 6.60811 23.2915 8.98208 23.2915 11.4574C23.2915 13.9328 22.317 16.3068 20.5822 18.0571C18.8475 19.8074 16.4948 20.7908 14.0415 20.7908C11.5883 20.7908 9.23548 19.8074 7.50077 18.0571C5.76605 16.3068 4.7915 13.9328 4.7915 11.4574ZM14.0415 5.23521C12.406 5.23521 10.8375 5.89076 9.68101 7.05766C8.52454 8.22455 7.87484 9.80719 7.87484 11.4574C7.87484 13.1077 8.52454 14.6903 9.68101 15.8572C10.8375 17.0241 12.406 17.6797 14.0415 17.6797C15.677 17.6797 17.2455 17.0241 18.402 15.8572C19.5585 14.6903 20.2082 13.1077 20.2082 11.4574C20.2082 9.80719 19.5585 8.22455 18.402 7.05766C17.2455 5.89076 15.677 5.23521 14.0415 5.23521Z" fill="#23A6F0"/>
</svg>
